<?xml version="1.0" encoding="UTF-8"?>
<svg width="700pt" height="700pt" version="1.1" viewBox="0 0 700 700" xmlns="http://www.w3.org/2000/svg" xmlns:xlink="http://www.w3.org/1999/xlink">
 <defs>
  <symbol id="f" overflow="visible">
   <path d="m39.078-2.3281c-2.0117 1.043-4.1094 1.8281-6.2969 2.3594s-4.4648 0.79688-6.8281 0.79688c-7.0859 0-12.699-1.9766-16.844-5.9375-4.1367-3.957-6.2031-9.3281-6.2031-16.109 0-6.7891 2.0664-12.164 6.2031-16.125 4.1445-3.9688 9.7578-5.9531 16.844-5.9531 2.3633 0 4.6406 0.26562 6.8281 0.79688s4.2852 1.3242 6.2969 2.375v8.7969c-2.0312-1.3828-4.0391-2.3984-6.0156-3.0469-1.9688-0.64453-4.0469-0.96875-6.2344-0.96875-3.9062 0-6.9844 1.2578-9.2344 3.7656-2.2422 2.5-3.3594 5.9531-3.3594 10.359 0 4.3867 1.1172 7.8359 3.3594 10.344 2.25 2.5 5.3281 3.75 9.2344 3.75 2.1875 0 4.2656-0.32031 6.2344-0.96875 1.9766-0.64453 3.9844-1.6602 6.0156-3.0469z"/>
  </symbol>
  <symbol id="e" overflow="visible">
   <path d="m16.031-40.953v9.0625h10.516v7.2812h-10.516v13.531c0 1.4805 0.28906 2.4805 0.875 3 0.59375 0.52344 1.7656 0.78125 3.5156 0.78125h5.2344v7.2969h-8.7344c-4.0312 0-6.8867-0.83594-8.5625-2.5156-1.6797-1.6875-2.5156-4.5391-2.5156-8.5625v-13.531h-5.0781v-7.2812h5.0781v-9.0625z"/>
  </symbol>
  <symbol id="a" overflow="visible">
   <path d="m26.594-27.234v-17.078h10.266v44.312h-10.266v-4.6094c-1.3984 1.875-2.9453 3.25-4.6406 4.125-1.6875 0.875-3.6406 1.3125-5.8594 1.3125-3.9297 0-7.1562-1.5625-9.6875-4.6875-2.5234-3.125-3.7812-7.1445-3.7812-12.062 0-4.9141 1.2578-8.9375 3.7812-12.062 2.5312-3.125 5.7578-4.6875 9.6875-4.6875 2.1953 0 4.1445 0.44531 5.8438 1.3281 1.707 0.88672 3.2578 2.2578 4.6562 4.1094zm-6.7188 20.656c2.1875 0 3.8516-0.79688 5-2.3906 1.1445-1.5938 1.7188-3.9102 1.7188-6.9531 0-3.0391-0.57422-5.3594-1.7188-6.9531-1.1484-1.5938-2.8125-2.3906-5-2.3906-2.168 0-3.8242 0.79688-4.9688 2.3906-1.1484 1.5938-1.7188 3.9141-1.7188 6.9531 0 3.043 0.57031 5.3594 1.7188 6.9531 1.1445 1.5938 2.8008 2.3906 4.9688 2.3906z"/>
  </symbol>
  <symbol id="d" overflow="visible">
   <path d="m21.875-6.5781c2.1758 0 3.8359-0.79688 4.9844-2.3906 1.1562-1.5938 1.7344-3.9102 1.7344-6.9531 0-3.0391-0.57812-5.3594-1.7344-6.9531-1.1484-1.5938-2.8086-2.3906-4.9844-2.3906-2.1875 0-3.8672 0.80469-5.0312 2.4062-1.168 1.6055-1.75 3.918-1.75 6.9375 0 3.0234 0.58203 5.3359 1.75 6.9375 1.1641 1.6055 2.8438 2.4062 5.0312 2.4062zm-6.7812-20.656c1.4062-1.8516 2.9609-3.2227 4.6719-4.1094 1.707-0.88281 3.6719-1.3281 5.8906-1.3281 3.9375 0 7.1641 1.5625 9.6875 4.6875 2.5195 3.125 3.7812 7.1484 3.7812 12.062 0 4.918-1.2617 8.9375-3.7812 12.062-2.5234 3.125-5.75 4.6875-9.6875 4.6875-2.2188 0-4.1836-0.44531-5.8906-1.3281-1.7109-0.88281-3.2656-2.2539-4.6719-4.1094v4.6094h-10.188v-44.312h10.188z"/>
  </symbol>
  <symbol id="c" overflow="visible">
   <path d="m31.156-7.75h-17.141l-2.7031 7.75h-11.031l15.75-42.516h13.078l15.75 42.516h-11.031zm-14.406-7.8906h11.641l-5.8125-16.906z"/>
  </symbol>
  <symbol id="b" overflow="visible">
   <path d="m4.9062-31.891h10.188v31.891h-10.188zm0-12.422h10.188v8.3125h-10.188z"/>
  </symbol>
 </defs>
 <g>
  <path d="m350 35c-16.648 0-32.91 1.6797-48.625 4.8516-0.10547 0.023438-0.21094 0.046876-0.31641 0.070313-69.324 14.07-127.98 57.469-162.61 116.64-0.5 0.69922-0.93359 1.4336-1.2734 2.2266-20.43 35.77-32.176 77.105-32.176 121.2 0 44.102 11.75 85.434 32.176 121.2 0.023438 0.035156 0.046875 0.070312 0.070313 0.10547 0.32812 0.75781 0.73438 1.4688 1.2031 2.125 34.672 59.242 93.438 102.67 162.86 116.69 0.023437 0 0.046874 0.023437 0.070312 0.023437 15.715 3.1719 31.977 4.8516 48.625 4.8516 16.531 0 32.691-1.6797 48.312-4.8086 0.59375-0.070312 1.1797-0.1875 1.75-0.33984 68.832-14.316 127.05-57.574 161.49-116.42 0.46484-0.65234 0.875-1.3633 1.2031-2.125 0.023438-0.035156 0.058594-0.070312 0.070313-0.10547 20.43-35.77 32.176-77.105 32.176-121.2 0-44.102-11.75-85.434-32.176-121.2-0.33984-0.79297-0.76953-1.5273-1.2734-2.2266-34.43-58.836-92.633-102.07-161.44-116.4-0.59375-0.16406-1.1914-0.29297-1.7969-0.36328-15.621-3.125-31.781-4.8086-48.312-4.8086zm-11.668 23.648v93.02h-77.059c12.227-29.562 28.559-59.406 49.012-89.703 9.1719-1.668 18.516-2.8125 28.047-3.3125zm23.332 0c9.6484 0.5 19.109 1.6797 28.398 3.3711 20.418 30.273 36.738 60.105 48.965 89.648h-77.363zm-84.875 12.145c-16.812 27.242-30.473 54.168-40.926 80.875h-66.488c26.344-37.008 63.758-65.566 107.41-80.875zm146.84 0.14062c43.469 15.328 80.734 43.844 107 80.734h-66.16c-10.441-26.66-24.066-53.551-40.832-80.734zm-268.84 104.07h72.754c-10.137 31.324-15.902 62.395-17.207 93.332h-81.691c1.75-33.637 11.012-65.297 26.145-93.332zm97.637 0h85.902v93.332h-104.09c1.375-30.93 7.4531-61.984 18.188-93.332zm109.23 0h86.203c10.723 31.348 16.836 62.406 18.199 93.332h-104.41v-93.332zm111.1 0h72.438c15.133 28.035 24.395 59.699 26.145 93.332h-81.375c-1.2969-30.941-7.0703-62.008-17.207-93.332zm-344.12 116.67h81.586c0.93359 31.137 6.3359 62.207 16.262 93.332h-71.703c-15.133-28.035-24.395-59.699-26.145-93.332zm105.5 0h104.18v93.332h-86.883c-10.547-31.148-16.297-62.195-17.301-93.332zm127.52 0h104.5c-0.99219 31.137-6.7539 62.195-17.289 93.332h-87.207v-93.332zm128.4 0h81.281c-1.75 33.637-11.012 65.297-26.145 93.332h-71.387c9.9297-31.125 15.316-62.195 16.25-93.332zm-320.69 116.67h65.438c10.453 26.762 24.23 53.609 41.336 80.641-43.375-15.352-80.559-43.82-106.77-80.641zm90.824 0h78.133v93.02c-9.5664-0.5-18.957-1.6562-28.164-3.3242-21-30.125-37.66-59.965-49.969-89.691zm101.46 0h78.434c-12.309 29.703-28.945 59.523-49.934 89.625-9.3086 1.7031-18.816 2.8828-28.5 3.3945zm103.81 0h65.148c-26.133 36.715-63.164 65.125-106.36 80.5 17.059-26.984 30.789-53.785 41.219-80.5z" fill-rule="evenodd"/>
  <use x="70" y="735" xlink:href="#f"/>
  <use x="220.503906" y="735" xlink:href="#e"/>
  <use x="287.953125" y="735" xlink:href="#a"/>
  <use x="350.015625" y="735" xlink:href="#d"/>
  <use x="450.105469" y="735" xlink:href="#c"/>
  <use x="524.019531" y="735" xlink:href="#a"/>
  <use x="565.777344" y="735" xlink:href="#b"/>
 </g>
</svg>
