<?xml version="1.0" encoding="UTF-8"?>
<svg width="700pt" height="700pt" version="1.1" viewBox="0 0 700 700" xmlns="http://www.w3.org/2000/svg">
 <g>
  <path d="m218.75 232.75c3.5-8.75 7-17.5 12.25-26.25 3.5-7 3.5-15.75-1.75-21l-15.75-14c-12.25 14-21 31.5-28 49z"/>
  <path d="m201.25 159.25-24.5-24.5c-3.5-3.5-7-5.25-12.25-5.25s-10.5 3.5-12.25 7c-12.25 17.5-22.75 36.75-29.75 56l47.25 21c7-21 17.5-38.5 31.5-54.25z"/>
  <path d="m157.5 280c0-15.75 1.75-31.5 5.25-45.5l-49-21c-5.25 21-8.75 43.75-8.75 66.5s3.5 45.5 8.75 66.5l49-21c-3.5-14-5.25-29.75-5.25-45.5z"/>
  <path d="m227.5 374.5c5.25-5.25 7-14 1.75-21-5.25-8.75-8.75-17.5-12.25-26.25l-33.25 14c7 17.5 15.75 35 28 49z"/>
  <path d="m169.75 346.5-47.25 21-1.75-1.75c7 19.25 17.5 38.5 29.75 56 3.5 3.5 7 7 12.25 7h1.75c5.25 0 8.75-1.75 12.25-5.25l22.75-22.75c-12.25-15.75-22.75-33.25-29.75-54.25z"/>
  <path d="m304.5 411.25c-8.75-3.5-17.5-7-26.25-12.25-7-3.5-15.75-3.5-21 1.75l-14 14c14 12.25 31.5 21 49 28z"/>
  <path d="m283.5 460.25c-19.25-7-38.5-17.5-54.25-31.5l-22.75 22.75c-3.5 3.5-5.25 8.75-5.25 14s3.5 10.5 7 12.25c17.5 12.25 36.75 22.75 56 29.75h-1.75z"/>
  <path d="m350 472.5c-15.75 0-31.5-1.75-45.5-5.25l-21 49c21 5.25 43.75 8.75 66.5 8.75s45.5-3.5 66.5-8.75l-21-49c-14 3.5-29.75 5.25-45.5 5.25z"/>
  <path d="m470.75 428.75c-15.75 14-35 22.75-54.25 31.5l21 47.25-1.75 1.75c19.25-7 38.5-17.5 56-29.75 3.5-3.5 7-7 7-12.25s-1.75-10.5-5.25-14z"/>
  <path d="m444.5 402.5c-5.25-5.25-14-7-21-1.75-8.75 5.25-17.5 8.75-26.25 12.25l14 33.25c17.5-7 35-15.75 49-28z"/>
  <path d="m481.25 327.25c-3.5 8.75-7 17.5-12.25 26.25-3.5 7-3.5 15.75 1.75 21l14 14c12.25-14 21-31.5 28-49z"/>
  <path d="m577.5 367.5-47.25-21c-7 19.25-17.5 38.5-31.5 54.25l22.75 22.75c3.5 3.5 7 5.25 12.25 5.25h1.75c5.25 0 10.5-3.5 12.25-7 12.25-17.5 22.75-36.75 29.75-56z"/>
  <path d="m586.25 213.5-49 21c3.5 14 5.25 29.75 5.25 45.5s-1.75 31.5-5.25 45.5l49 21c5.25-21 8.75-43.75 8.75-66.5s-3.5-45.5-8.75-66.5z"/>
  <path d="m472.5 185.5c-5.25 5.25-7 14-1.75 21 5.25 8.75 8.75 17.5 12.25 26.25l33.25-14c-7-17.5-15.75-35-28-49z"/>
  <path d="m549.5 138.25c-3.5-3.5-7-7-12.25-7s-10.5 1.75-14 5.25l-22.75 22.75c14 15.75 22.75 35 31.5 54.25l45.5-21 1.75 1.75c-7-19.25-17.5-38.5-29.75-56z"/>
  <path d="m255.5 157.5c5.25 5.25 14 7 21 1.75 8.75-5.25 17.5-8.75 26.25-12.25l-14-33.25c-17.5 7-35 15.75-49 28z"/>
  <path d="m229.25 131.25c15.75-14 35-22.75 54.25-31.5l-21-47.25 1.75-1.75c-19.25 7-38.5 17.5-56 29.75-5.25 3.5-7 8.75-8.75 14 0 5.25 1.75 10.5 5.25 14z"/>
  <path d="m409.5 115.5-14 33.25c8.75 3.5 17.5 7 26.25 12.25 3.5 1.75 5.25 1.75 8.75 1.75 5.25 0 8.75-1.75 12.25-5.25l14-14c-12.25-12.25-28-21-47.25-28z"/>
  <path d="m416.5 99.75c19.25 7 38.5 17.5 54.25 31.5l22.75-22.75c3.5-3.5 5.25-8.75 5.25-14s-3.5-10.5-7-12.25c-17.5-12.25-36.75-22.75-56-29.75h1.75z"/>
  <path d="m519.75 241.5-33.25 14c0 1.75 0 5.25 1.75 7h-68.25-1.75c-7-24.5-26.25-43.75-50.75-50.75v-1.75-68.25c1.75 0 5.25 0 7 1.75l14-33.25c-12.25-3.5-24.5-5.25-38.5-5.25s-26.25 1.75-38.5 5.25l14 33.25c1.75 0 5.25 0 7-1.75v68.25 1.75c-24.5 7-43.75 26.25-50.75 50.75h-1.75-68.25c0-1.75 0-5.25 1.75-7l-33.25-14c-3.5 12.25-5.25 24.5-5.25 38.5s1.75 26.25 5.25 38.5l33.25-14c0-1.75 0-5.25-1.75-7h68.25 1.75c7 24.5 26.25 43.75 50.75 50.75v1.75 68.25c-1.75 0-5.25 0-7-1.75l-14 33.25c12.25 3.5 24.5 5.25 38.5 5.25s26.25-1.75 38.5-5.25l-14-33.25c-1.75 0-5.25 0-7 1.75v-68.25-1.75c24.5-7 43.75-26.25 50.75-50.75h1.75 68.25c0 1.75 0 5.25-1.75 7l33.25 14c3.5-12.25 5.25-24.5 5.25-38.5s-1.75-26.25-5.25-38.5z"/>
  <path d="m350 87.5c15.75 0 31.5 1.75 45.5 5.25l21-49c-21-5.25-43.75-8.75-66.5-8.75s-45.5 3.5-66.5 8.75l21 49c14-3.5 29.75-5.25 45.5-5.25z"/>
 </g>
</svg>
