<?xml version="1.0" encoding="UTF-8"?>
<svg width="700pt" height="700pt" version="1.1" viewBox="0 0 700 700" xmlns="http://www.w3.org/2000/svg">
 <g>
  <path d="m490 513.33h-303.33c-14 0-23.332 9.332-23.332 23.332v23.332h350v-23.332c-0.003907-13.996-9.3359-23.332-23.336-23.332z"/>
  <path d="m210 478.33v-70c0-7-4.668-11.668-11.668-11.668s-11.668 4.668-11.668 11.668v70c0 7 4.668 11.668 11.668 11.668s11.668-4.668 11.668-11.668z"/>
  <path d="m256.67 478.33v-70c0-7-4.668-11.668-11.668-11.668s-11.668 4.668-11.668 11.668v70c0 7 4.668 11.668 11.668 11.668s11.668-4.668 11.668-11.668z"/>
  <path d="m303.33 478.33v-70c0-7-4.668-11.668-11.668-11.668s-11.668 4.668-11.668 11.668v70c0 7 4.668 11.668 11.668 11.668 7.0039 0 11.668-4.668 11.668-11.668z"/>
  <path d="m350 478.33v-70c0-7-4.668-11.668-11.668-11.668s-11.668 4.668-11.668 11.668v70c0 7 4.668 11.668 11.668 11.668s11.668-4.668 11.668-11.668z"/>
  <path d="m396.67 478.33v-70c0-7-4.668-11.668-11.668-11.668s-11.668 4.668-11.668 11.668v70c0 7 4.668 11.668 11.668 11.668s11.668-4.668 11.668-11.668z"/>
  <path d="m443.33 478.33v-70c0-7-4.668-11.668-11.668-11.668s-11.668 4.668-11.668 11.668v70c0 7 4.668 11.668 11.668 11.668 7.0039 0 11.668-4.668 11.668-11.668z"/>
  <path d="m490 478.33v-70c0-7-4.668-11.668-11.668-11.668s-11.668 4.668-11.668 11.668v70c0 7 4.668 11.668 11.668 11.668s11.668-4.668 11.668-11.668z"/>
  <path d="m256.67 116.67c12.879 0 23.332-10.43 23.332-23.332h35l11.668 18.668-46.668 74.668h23.332l35-56 35 56h23.332l-46.668-74.668 11.668-18.668h35c0 12.902 10.453 23.332 23.332 23.332h46.668l46.668-93.332h-70c0-12.902-10.453-23.332-23.332-23.332h-23.332l-58.332 93.332-58.332-93.332h-23.332c-12.879 0-23.332 10.43-23.332 23.332h-70l46.668 93.332z"/>
  <path d="m490 210v46.668h-70v-46.668h-46.668v46.668h-70v-46.668h-46.664v46.668h-70v-46.668h-46.668v93.332h396.67v-93.332z"/>
  <path d="m163.33 350c0 14 9.332 23.332 23.332 23.332h298.67 4.668c14 0 23.332-9.332 23.332-23.332v-23.332h-350z"/>
 </g>
</svg>
