<svg xmlns:dc="http://purl.org/dc/elements/1.1/" xmlns:cc="http://creativecommons.org/ns#" xmlns:rdf="http://www.w3.org/1999/02/22-rdf-syntax-ns#" xmlns:svg="http://www.w3.org/2000/svg" xmlns="http://www.w3.org/2000/svg" xmlns:sodipodi="http://sodipodi.sourceforge.net/DTD/sodipodi-0.dtd" xmlns:inkscape="http://www.inkscape.org/namespaces/inkscape" viewBox="0 0 230.80372 225.26253749999998" version="1.1" x="0px" y="0px"><g transform="translate(219.51258,79.074848)"><path style="" d="m -33.687983,-34.096778 -44.979111,-44.97807 -12.434795,12.4348 -12.434801,12.43479 32.366691,32.36812 c 17.801677,17.80247 32.366685,32.52623 32.366685,32.71947 0,0.19325 -14.624585,14.976582 -32.499079,32.851856 l -32.499077,32.500504 12.419359,12.450243 12.419358,12.450245 45.126942,-45.125907 C -9.015998,31.190021 11.291128,10.882902 11.291128,10.882332 c 0,-7.1e-4 -20.240596,-20.24117 -44.979111,-44.97911 z m -115.711107,0 -44.97911,-44.97807 -12.43479,12.4348 -12.4348,12.43479 32.36669,32.36812 c 17.80167,17.80247 32.36668,32.52623 32.36668,32.71947 0,0.19325 -14.62458,14.976582 -32.49908,32.851856 l -32.49908,32.500504 12.41936,12.450243 12.41936,12.450245 45.12694,-45.125907 c 24.81982,-24.819252 45.12694,-45.126371 45.12694,-45.126941 0,-7.1e-4 -20.2406,-20.24117 -44.97911,-44.97911 z" fill="#000000" stroke-width="0.35277775"/></g><text x="0" y="195.21003" fill="#000000" font-size="5px" font-weight="bold" font-family="'Helvetica Neue', Helvetica, Arial-Unicode, Arial, Sans-serif">Created by iconeu</text><text x="0" y="200.21003" fill="#000000" font-size="5px" font-weight="bold" font-family="'Helvetica Neue', Helvetica, Arial-Unicode, Arial, Sans-serif">from the Noun Project</text></svg>